<svg enable-background="new 0 0 400 400" viewBox="0 0 400 400" xmlns="http://www.w3.org/2000/svg"><g fill="#fafafb"><path d="m12.4 4.8-6.1 9h6v1.2h-8v-.5l6.1-8.9h-5.7v-1.2h7.6v.4z"/><path d="m14 15v-10.6h3c1.6 0 2.9.5 4 1.4s1.6 2.2 1.6 3.8-.5 3-1.6 3.9-2.4 1.5-4 1.5zm1.4-9.4v8.2h1.6c1.3 0 2.4-.4 3.1-1.1s1.1-1.8 1.1-3.1-.4-2.3-1.2-3-1.8-1-3.1-1z"/><path d="m26.1 4.4v10.6h-1.4v-10.6z"/><path d="m36.1 14.6c-.8.4-1.8.6-2.9.6-1.5 0-2.7-.5-3.6-1.4s-1.4-2.2-1.4-3.8c0-1.7.5-3.1 1.5-4.1s2.3-1.6 3.9-1.6c1 0 1.8.1 2.5.4v1.4c-.8-.4-1.6-.6-2.5-.6-1.2 0-2.1.4-2.9 1.2s-1.1 1.8-1.1 3.2c0 1.3.3 2.3 1 3s1.6 1.1 2.7 1.1c1 0 2-.2 2.7-.7v1.3z"/><path d="m37.6 14.3c0-.2.1-.5.3-.6s.4-.3.6-.3c.3 0 .5.1.6.3s.3.4.3.6-.1.4-.3.6-.4.3-.6.3c-.3 0-.5-.1-.6-.3s-.3-.4-.3-.6z"/><path d="m50.2 15h-1.6l-5.3-8.2c-.2-.2-.3-.5-.4-.7 0 .2.1.7.1 1.5v7.4h-1.4v-10.6h1.7l5.2 8.1c.2.4.4.6.4.7 0-.3-.1-.8-.1-1.5v-7.3h1.4z"/><path d="m58.6 15h-5.7v-10.6h5.5v1.2h-4.1v3.4h3.8v1.2h-3.8v3.6h4.3z"/><path d="m67.1 5.6h-3.1v9.4h-1.4v-9.4h-3v-1.2h7.5z"/></g><path d="m307.77 299.34c-3.02 0-5.8-.4-8.42.08-6.03 1.12-11.98 2.71-17.98 4.04-10.53 2.34-17.67-2.44-19.05-12.72 7.7-2.59 15.39-5.2 23.09-7.78 8.57-2.87 13.31-8.9 15.04-17.67.59-2.98-.23-4.54-3-5.61-3.88-1.51-7.76-2.3-11.74-.7-14.31 5.73-28.68 3.96-42.15-1.71-10.31-4.35-19.81-3.99-29.95-.99-3.83 1.14-6.44 2.87-7.64 6.89-1.05 3.51-2.65 6.88-4.22 10.22-.82 1.74-.56 2.79.91 3.99 3.9 3.16 7.68 6.47 11.74 9.92-4.68 3.42-9.18 6.54-13.44 9.97-1.18.95-2.33 2.89-2.24 4.29.92 14.04-1.55 27.57-5.31 41-2.25 8.05-3.95 16.25-5.9 24.38-.3.06-.59.11-.89.17-1.4-4.9-3.33-9.73-4.09-14.73-1.84-12.14-3.29-24.34-4.61-36.55-1.01-9.33-1.13-18.78-2.46-28.06-1.12-7.84.79-15.19 2.45-22.51 4.04-17.9 5.01-36.08 5.84-54.29.11-2.37.95-3.73 3.76-4.53.54 3.94 1.27 7.76 1.54 11.61.41 5.91.31 11.85.8 17.75.35 4.2 1.89 8.04 5.65 10.82 8.17-5.84 16.46-11.5 24.43-17.6 2.83-2.17 4.16-5.97 3.27-9.44-3.2-12.54.23-24.64 1.96-36.84 3.04-21.47 6.09-42.94 11.47-64 .25-.98-.64-2.95-1.54-3.4-4.16-2.12-8.53-3.81-12.78-5.75-3.72-1.7-7.48-3.35-11.02-5.38-1.28-.73-1.97-2.49-3.34-4.34 6.2-.55 11.59-1.17 17.01-1.49 16.74-.98 33.5-1.8 50.24-2.8 4.12-.25 8.27-.64 12.29-1.52 16.47-3.6 24.05-15.33 23.2-32.16-.65-12.78-9.35-16.41-18.69-20.04-6.86-2.67-14.06-2.02-21.22-1.28-15.13 1.57-30.27 3.01-45.4 4.46-2 .19-4.08.41-6.02.05-1.87-.35-3.89-1.09-5.34-2.27-1.83-1.5-2.03-3.15.77-4.46 9.73-4.54 20.02-7.1 30.56-8.57 12.62-1.75 25.27-3.69 37.97-4.34 7.34-.37 14.8 1.61 22.2 2.58 1.88.25 3.74.68 5.62.97 13.03 2.05 23.95 13.24 25.8 26.31 1.6 11.32-.02 22.12-5.45 32.16-1.59 2.93-4.03 5.52-6.49 7.83-2.76 2.59-6.14 4.51-8.98 7.03-3.83 3.4-8.27 5.13-13.21 6.02-1.94.35-3.94.99-5.63 1.98-2.54 1.48-3.78 3.64-3.55 6.95 2.01 28.46 3.84 56.93 5.74 85.4.77 11.5 1.56 23 2.41 34.49.25 3.44 3.86 6.25 8.35 6.73 3.92.42 7.15-1.39 7.89-5.02 2.17-10.73 4.03-21.52 6.18-32.25.94-4.67 2.32-9.26 3.49-13.88l1.02.09c.05 1 .15 1.99.16 2.99.34 28.98 1.08 57.96.78 86.94-.1 9.49-2.52 19.03-4.49 28.43-3.46 16.51-7.2 32.97-11.28 49.34-1.05 4.2-3.54 8.14-5.86 11.89-1.8 2.9-5.07 2.63-6.82-.26-7.72-12.77-10.79-26-4.87-40.55 3.92-9.62 7.11-19.53 10.61-29.31.28-.77.43-1.52.83-2.97zm-50.03-97.17c-.05.27-.1.55-.16.82-1.01 0-2.04-.16-3.01.02-12.05 2.28-16.68 4.03-15.06 16.26 1.31 9.87 4.77 18.19 15.85 20.65 2.17.48 4.27 1.29 6.44 1.82 7.86 1.92 15.1.82 21.28-4.74.94-.85 2.02-2.01 2.2-3.16.8-5.16 1.75-10.36 1.79-15.56.05-6.02-2.92-10.66-9.06-12.14-6.69-1.62-13.51-2.68-20.27-3.97zm1.84-45.11c-.07-.16-.14-.32-.21-.49-2.83.82-5.78 1.35-8.46 2.5-8.01 3.44-7.98 3.54-9.22 12.23-.66 4.64-1.51 9.3.72 13.8.99 2 2.2 3.34 4.76 3.49 5.68.32 11.35 1.47 17 1.36 4.1-.08 8.29-1.29 12.22-2.65 3.16-1.1 5.33-3.46 4.64-7.45-.43-2.52-.27-5.13-.61-7.67-1.22-8.88-5.03-12.76-13.87-14.22-2.31-.4-4.64-.61-6.97-.9zm19.2-42.56c-6.09-.33-11.92-1.24-17.6-.67-2.66.27-6.07 2.89-7.28 5.35-1.76 3.57-2.1 7.94-2.58 12.03-.78 6.55 1.9 10.33 8.23 11.79 5.99 1.38 12.07 2.87 17.95-.4.93-.52 2.22-1.63 2.21-2.44-.18-8.46-.58-16.92-.93-25.66z" fill="#010105"/><path d="m189.12 124.97c-7.91 3.04-15.79 2.86-23.7 1.75-5.2-.73-10.33-2.01-15.54-2.54-6.79-.69-13.2.81-17.27 6.72-2 2.9-3.07 6.65-3.8 10.17-3.61 17.48-3.09 35.14-2.05 52.83 1.03 17.68-2.19 34.63-8.4 51.24-2.7 7.23-3.35 15.23-5.08 22.84-.43 1.91-1.09 4-2.32 5.43-.9 1.04-2.93 1.61-4.39 1.48-.82-.07-1.89-1.87-2.17-3.04-3.61-15.38-3.81-31.06-3.49-46.72.44-21.59 1.08-43.18 1.85-64.76.39-10.84 1.17-21.68 2.02-32.5.19-2.45-.58-3.72-2.55-4.82-5.8-3.22-12.1-3.66-18.53-3.56-6.12.09-12.28.55-18.36.07-5-.39-7.97-3.94-8.23-8.3-.04-.71.1-1.93.49-2.09 3.58-1.42 7.31-3.97 10.84-3.74 23.88 1.59 47.71 3.87 71.57 5.73 8.58.67 17.2.69 25.8 1.2 9.58.55 17.29 4.73 23.31 12.61z" fill="#010105"/><path d="m181.76 56.02c-3.21 3.02-6.87 4.22-10.85 4.45-2.78.16-5.58.06-8.37-.04-10.48-.37-20.95-.93-31.43-1.15-16.59-.34-32.92-2.63-49.11-6.08-1-.2-2.06-1.17-2.63-2.07-.93-1.49-1.49-3.22-2.36-5.2 8-1.17 15.85-2.02 23.55-3.55 6.1-1.21 11.71 1.02 17.56 1.4 11.14.72 22.29 1.31 33.42 2.06 9.31.63 18.45 2.02 26.48 7.31 1.28.84 2.44 1.87 3.74 2.87z" fill="#010105"/><path d="m138.99 242.07c-3.87-24.78-3.39-48.07 5.16-71.34 8.03 6.04 12.51 13.52 12.7 22.99.28 14.4-3.42 28.14-9.02 41.25-1.19 2.79-5.28 4.35-8.84 7.1z" fill="#010105"/><path d="m66.26 224.84c-.62-4.1-1.41-7.55-1.64-11.04-1.04-15.58-.6-31.03 4.25-46.09 1.02-3.15 2.66-6.6 5.68-6.7 2.2-.08 4.88 2.7 6.69 4.78 3.8 4.37 4.85 9.95 4.2 15.44-1.19 9.96-2.98 19.85-4.73 29.73-.26 1.46-1.41 3-2.57 4.03-3.66 3.25-7.52 6.27-11.88 9.85z" fill="#010105"/></svg>